<svg width="500" height="500" xmlns="http://www.w3.org/2000/svg" version="1.1">
<defs
     id="defs2">
    <linearGradient
       id="linearGradient3149"
       >
      <stop
         id="stop3145"
         offset="0"
         style="stop-color:#38f5fa;stop-opacity:1;" />
      <stop
         style="stop-color:#4dced1;stop-opacity:1"
         offset="0.4"
         id="stop3150" />
      <stop
         style="stop-color:#23696b;stop-opacity:1"
         offset="0.91"
         id="stop3157" />
      <stop
         id="stop3147"
         offset="1"
         style="stop-color:#000000;stop-opacity:1" />
    </linearGradient>
    <radialGradient
       gradientUnits="userSpaceOnUse"
       r="150"
       fy="250"
       fx="250"
       cy="250"
       cx="250"
       id="radialGradient3151"
       href="#linearGradient3149"
       />
  </defs><g>

<circle cx="250" cy="250" r="150" stroke="black" fill="#dddddd" stroke-width="10" style = "opacity:1;mix-blend-mode:normal;fill-opacity:1;fill-rule:evenodd;;stroke-opacity:1;stroke-miterlimit:4;stroke-dasharray:none;fill:url(#radialGradient3151)"/>
<line x1="250" y1="120" x2="250" y2="100" stroke="black" stroke-width="5"/>
<line x1="317" y1="133" x2="325" y2="120" stroke="black" stroke-width="3"/>
<line x1="366" y1="182" x2="379" y2="175" stroke="black" stroke-width="3"/>
<line x1="380" y1="250" x2="400" y2="250" stroke="black" stroke-width="5"/>
<line x1="366" y1="317" x2="379" y2="325" stroke="black" stroke-width="3"/>
<line x1="317" y1="366" x2="324" y2="379" stroke="black" stroke-width="3"/>
<line x1="249" y1="380" x2="249" y2="400" stroke="black" stroke-width="5"/>
<line x1="182" y1="366" x2="174" y2="379" stroke="black" stroke-width="3"/>
<line x1="133" y1="317" x2="120" y2="324" stroke="black" stroke-width="3"/>
<line x1="120" y1="249" x2="100" y2="249" stroke="black" stroke-width="5"/>
<line x1="133" y1="182" x2="120" y2="174" stroke="black" stroke-width="3"/>
<line x1="182" y1="133" x2="175" y2="120" stroke="black" stroke-width="3"/>
<line x1="250" y1="250" x2="125" y2="249" stroke="red" stroke-width="2"/>
<line x1="250" y1="250" x2="190" y2="359" stroke="#222222" stroke-width="3"/>
<line x1="250" y1="250" x2="279" y2="154" stroke="black" stroke-width="4"/>
<circle cx="250" cy="250" r="4" stroke="black" fill="black" stroke-width="0" style = ""/>
</g>
</svg>
